<svg width="480" height="410" viewBox="0 0 480 410" fill="none" xmlns="http://www.w3.org/2000/svg">
<g clip-path="url(#clip0_18_8)">
<path d="M368.262 7.3193L368.262 7.32477C367.959 12.3425 367.236 15.0628 365.402 17.7865L365.4 17.7896C363.717 20.2491 361.481 21.947 353.925 26.6116L353.663 26.1861L353.925 26.6116C347.131 30.8056 343.953 33.5833 342.599 36.3562L342.599 36.3572C342.153 37.2662 341.937 37.8001 341.837 38.4107C341.735 39.0352 341.749 39.7667 341.824 41.082C341.898 42.2475 341.999 43.081 342.208 43.8967C342.417 44.7125 342.739 45.5305 343.276 46.6574C345.926 52.1637 349.189 55.7717 359.569 64.3695L359.571 64.371C363.172 67.3831 365.661 69.5643 367.355 71.2402C369.041 72.9085 369.983 74.116 370.435 75.1834L370.435 75.1834L370.438 75.1886L370.452 75.223C370.671 75.7572 370.894 76.2996 370.83 76.9127C370.763 77.5487 370.403 78.1711 369.723 78.9485C368.369 80.4956 365.458 82.9606 359.76 87.769L359.76 87.769C357.223 89.9092 354.468 92.4802 352.119 94.8467C349.763 97.2208 347.841 99.363 346.949 100.651C345.993 102.045 345.138 103.624 344.541 105.02C344.243 105.719 344.013 106.363 343.867 106.909C343.718 107.468 343.67 107.88 343.697 108.132L343.697 108.133C343.725 108.39 343.752 108.566 343.786 108.694C343.819 108.817 343.851 108.862 343.866 108.88C343.894 108.912 343.977 108.978 344.458 109.036C344.896 109.086 345.585 108.945 346.566 108.523C347.531 108.108 348.718 107.448 350.123 106.537C352.934 104.716 356.571 101.925 360.99 98.1902L360.99 98.1901C366.11 93.8654 375.392 84.8296 379.649 79.9865L379.652 79.9836C382.111 77.229 384.047 75.5273 386.939 74.3586C389.801 73.2025 393.569 72.5804 399.656 71.8891L399.657 71.889C402.178 71.6096 404.035 71.277 405.392 70.8605C406.752 70.443 407.559 69.9562 408.033 69.4041L408.033 69.404L408.041 69.395C408.177 69.2445 408.501 68.7783 408.93 68.1123C409.348 67.4634 409.842 66.6641 410.308 65.8825L410.309 65.881C410.732 65.1777 411.046 64.6519 411.27 64.2523C411.46 63.9117 411.568 63.6897 411.623 63.544C411.595 63.5371 411.564 63.5296 411.527 63.5214L411.527 63.5215L411.517 63.5189C411.233 63.4482 410.033 63.1913 408.469 62.8566C407.607 62.6722 406.635 62.4641 405.645 62.2506L405.642 62.2501C399.524 60.9021 394.07 59.5142 390.073 58.2355C387.842 57.5308 386.281 57.1814 384.581 57.132C382.872 57.0822 380.996 57.3346 378.132 57.8761C375.166 58.453 373.416 58.7619 372.272 58.8058C371.691 58.8281 371.231 58.7843 370.829 58.6556C370.422 58.5252 370.109 58.319 369.809 58.0715C369.381 57.7251 369.113 57.2105 368.955 56.6284C368.796 56.0426 368.736 55.3483 368.753 54.5882C368.786 53.0673 369.129 51.2051 369.696 49.2496C370.83 45.3426 372.89 40.9541 375.328 38.0247C377.323 35.6136 378.423 34.7193 384.755 30.0846C387.71 27.9203 389.4 26.2709 390.228 24.5352C391.044 22.8265 391.058 20.9571 390.45 18.253L390.45 18.2524C388.686 10.3701 382.953 3.81856 375.627 1.33389L375.626 1.33347C373.036 0.4478 371.267 0.344902 370.012 0.837967C369.574 1.01894 369.186 1.44044 368.879 2.46294C368.569 3.49524 368.374 5.04281 368.262 7.3193Z" fill="white" stroke="#303030"/>
<path d="M413.21 98.7706L413.21 98.7706L413.208 98.7756C412.437 101.671 412.497 103.408 413.29 105.093L413.29 105.093L413.292 105.097C413.983 106.6 414.881 107.577 416.208 108.196C417.562 108.827 419.405 109.108 422.025 109.108C427.656 109.108 431.553 107.814 434.122 105.251C435.005 104.37 435.587 103.538 435.949 102.6C436.313 101.66 436.468 100.578 436.45 99.1771C436.379 93.8769 431.894 88.7254 425.688 87.1228L425.688 87.1228L425.682 87.1214C424.102 86.6949 423.004 86.5258 422.141 86.5812C421.306 86.6349 420.668 86.9007 420.008 87.4071C418.803 88.3623 417.351 90.2175 416.065 92.3579C414.781 94.4932 413.7 96.8507 413.21 98.7706Z" fill="white" stroke="#303030"/>
<path d="M386.952 103.433L386.889 103.423C386.853 103.432 386.812 103.44 386.77 103.449C386.655 103.472 386.498 103.5 386.313 103.531C385.942 103.593 385.44 103.668 384.893 103.744C384.381 103.814 383.818 103.947 383.32 104.104C382.815 104.263 382.418 104.433 382.211 104.565C381.809 104.833 381.285 105.39 380.695 106.192C380.112 106.984 379.492 107.975 378.893 109.067C377.692 111.255 376.596 113.806 376.046 115.906C375.404 118.397 375.354 120.509 375.805 122.112C376.251 123.698 377.184 124.785 378.551 125.3L378.553 125.301C378.884 125.427 379.594 125.566 380.649 125.704C381.684 125.84 383.002 125.969 384.51 126.087C387.526 126.323 391.287 126.517 395.042 126.643C398.796 126.769 402.538 126.828 405.517 126.794C407.007 126.777 408.301 126.737 409.307 126.672C410.336 126.605 411.003 126.514 411.287 126.418C411.931 126.192 412.322 125.91 412.506 125.662C412.595 125.543 412.628 125.443 412.634 125.363C412.64 125.287 412.623 125.198 412.559 125.091L412.559 125.091L412.555 125.083C412.016 124.152 410.123 121.669 407.995 119.036C405.878 116.414 403.574 113.697 402.24 112.311L402.238 112.309C397.208 107.031 393.323 104.573 389.01 103.777C388.396 103.666 387.837 103.573 387.432 103.508C387.229 103.476 387.065 103.45 386.952 103.433Z" fill="white" stroke="#303030"/>
<path d="M47.2439 124.602L47.2436 124.602C46.4691 125.164 45.3941 126.31 44.9072 127.142C43.2163 130.068 42.6061 134.552 42.9855 138.798C43.1744 140.913 43.6069 142.943 44.2571 144.663C44.9094 146.388 45.7668 147.764 46.7817 148.614C47.0663 148.848 47.7526 149.286 48.6616 149.822C49.5586 150.35 50.6389 150.954 51.6829 151.512C55.2388 153.352 57.926 155.454 60.1167 158.334C62.3025 161.208 63.9737 164.831 65.5384 169.682L65.5387 169.683C72.1282 190.263 76.6525 200.708 87.7374 220.843C90.8614 226.453 94.9645 230.208 110.577 241.328C110.957 241.598 111.326 241.86 111.683 242.114C117.478 246.235 120.426 248.33 122.132 249.428C123.037 250.011 123.564 250.293 123.964 250.449C124.345 250.598 124.623 250.638 125.072 250.702L125.096 250.705L125.096 250.705L125.101 250.706C127.362 251.055 129.711 250.296 131.505 248.893C133.3 247.49 134.482 245.49 134.5 243.417C134.5 242.965 134.471 242.601 134.359 242.193C134.245 241.78 134.038 241.298 133.656 240.627C132.885 239.272 131.451 237.23 128.782 233.536L128.781 233.535C120.825 222.454 119.009 219.053 117.636 212.624L117.636 212.622C115.815 203.988 111.424 194.281 103.901 182.259L103.901 182.258C99.3131 174.891 96.2264 171.142 88.1428 162.891C82.6647 157.314 79.4917 153.737 77.2553 150.599C73.3497 145.144 66.3322 137.804 57.2675 129.733C55.2966 127.982 53.8183 126.673 52.6642 125.719C51.5035 124.759 50.7044 124.188 50.0881 123.889C49.4962 123.602 49.1159 123.587 48.7578 123.694C48.349 123.817 47.9188 124.111 47.2439 124.602Z" fill="white" stroke="#303030"/>
<path d="M423.02 134.118L423.018 134.12C420.889 136.826 418.599 139.44 416.589 141.497C415.584 142.526 414.644 143.42 413.827 144.118C413.02 144.807 412.301 145.333 411.74 145.597C410.463 146.214 409.267 146.461 407.766 146.249C406.296 146.042 404.553 145.397 402.166 144.291C398.889 142.797 396.704 141.982 394.735 141.684C392.783 141.39 391.01 141.599 388.549 142.226L388.548 142.226C385.019 143.125 381.326 144.964 378.218 147.211C375.102 149.463 372.627 152.088 371.477 154.524L371.477 154.524L371.475 154.529C370.968 155.578 370.732 156.202 370.673 156.699C370.618 157.158 370.71 157.546 370.99 158.138L370.99 158.138L370.992 158.143C371.199 158.596 371.486 158.958 371.96 159.267C372.449 159.584 373.155 159.859 374.221 160.093C376.362 160.564 379.796 160.844 385.448 161.106L385.449 161.106C394.74 161.555 398.507 162.116 401.756 163.582L401.756 163.582L401.761 163.584C403.156 164.232 404.195 164.859 405.122 165.754C406.045 166.644 406.832 167.777 407.759 169.4C409.808 172.963 411.112 175.026 412.25 176.269C412.811 176.882 413.32 177.282 413.845 177.561C414.371 177.84 414.936 178.01 415.626 178.135C415.935 178.19 416.463 178.206 417.164 178.178C417.856 178.149 418.684 178.078 419.575 177.971C421.358 177.758 423.37 177.406 425.013 176.983L425.015 176.982C429.193 175.927 433.549 173.072 437.129 169.358C440.707 165.645 443.463 161.121 444.488 156.779C444.965 154.693 445.034 153.149 444.579 151.554C444.117 149.939 443.105 148.222 441.312 145.819L441.31 145.817C439.971 144.006 436.262 140.19 432.728 136.81C430.967 135.125 429.262 133.561 427.934 132.422C427.27 131.852 426.706 131.394 426.281 131.082C426.084 130.937 425.924 130.83 425.803 130.759C425.783 130.78 425.761 130.803 425.737 130.828C425.57 131.007 425.34 131.267 425.063 131.592C424.511 132.24 423.785 133.131 423.02 134.118ZM425.635 130.674C425.636 130.674 425.638 130.675 425.64 130.675C425.636 130.674 425.635 130.674 425.635 130.674Z" fill="white" stroke="#303030"/>
<path d="M283.863 195.025L283.865 195.025C287.597 194.819 290.165 194.593 291.971 194.265C293.772 193.937 294.888 193.494 295.649 192.8C296.007 192.474 296.3 192.124 296.484 191.7C296.67 191.271 296.726 190.806 296.672 190.276C296.569 189.253 296.042 187.907 295.129 185.936M283.863 195.025L294.675 186.146M283.863 195.025C276.542 195.398 273.294 196.14 269.68 198.143C265.223 200.621 262.655 203.558 258.739 210.701C257.444 213.097 256.48 214.647 255.322 215.845C254.157 217.052 252.822 217.877 250.837 218.876L250.836 218.877C249.78 219.404 246.887 220.398 243.838 221.348C240.775 222.303 237.484 223.235 235.604 223.632L235.601 223.633C234.497 223.86 233.146 224.456 231.829 225.267C230.516 226.074 229.272 227.073 228.373 228.078C226.331 230.369 224.595 233.522 222.805 238.245L283.863 195.025ZM295.129 185.936C295.129 185.936 295.129 185.936 295.129 185.936L294.675 186.146M295.129 185.936C295.129 185.937 295.129 185.937 295.13 185.938L294.675 186.146M295.129 185.936C293.758 182.942 293.262 180.689 293.621 178.653C293.979 176.618 295.206 174.707 297.502 172.436M294.675 186.146C291.9 180.086 292.5 176.682 297.15 172.08M297.502 172.436C297.501 172.436 297.501 172.436 297.501 172.437L297.15 172.08M297.502 172.436L297.15 172.08M297.502 172.436C300.279 169.702 302.964 167.836 305.778 166.67C307.604 165.93 309.392 165.728 310.692 165.952C311.342 166.064 311.836 166.277 312.158 166.547C312.466 166.807 312.625 167.125 312.625 167.516C312.625 167.719 312.696 168.44 312.797 169.384C312.9 170.349 313.041 171.595 313.191 172.886L313.191 172.887C314.13 180.831 315.867 186.207 318.604 189.212C320.159 190.938 321.785 191.968 323.853 192.289C325.893 192.606 328.306 192.223 331.421 191.263C332.405 190.967 333.356 190.718 334.095 190.558C334.466 190.478 334.775 190.421 335.004 190.392C335.119 190.377 335.205 190.37 335.264 190.369C335.274 190.368 335.283 190.368 335.289 190.368C335.382 190.419 335.475 190.535 335.49 190.845C335.507 191.2 335.405 191.701 335.17 192.287C334.703 193.452 333.777 194.793 332.648 195.708L332.643 195.712C331.772 196.436 328.875 198.402 326.173 200.087L326.171 200.088C321.53 203.019 318.708 204.997 317.053 206.773C316.216 207.671 315.665 208.531 315.326 209.45C314.989 210.367 314.875 211.314 314.875 212.37V212.376C314.915 215.334 315.854 217.541 320.154 225.038L320.154 225.038C324.447 232.519 326.967 237.706 328.059 241.813C329.142 245.883 328.82 248.878 327.407 252.004C325.548 256.112 323.24 258.626 312.84 267.428L312.836 267.431C310.331 269.594 307.446 272.278 306.511 273.443C304.323 276.124 301.969 280.903 300.979 284.742C300.439 286.8 300.11 290.11 300.002 293.752C299.893 297.403 300.006 301.428 300.365 304.932L300.365 304.933C300.647 307.654 300.743 309.274 300.614 310.389C300.492 311.45 300.169 312.036 299.561 312.694C297.5 314.852 293.681 315.978 286.257 316.24L286.256 316.24C279.514 316.5 274.081 315.981 267.106 314.493C267.105 314.493 267.105 314.493 267.104 314.493L267 314.982C259.275 313.298 257.775 313.149 247.688 312.7L297.15 172.08M239.3 311.694C240.88 311.883 243.237 311.994 247.71 312.2L222.338 238.069C220.838 242.072 220.163 242.633 217.8 242.035L217.679 242.52C217.678 242.52 217.678 242.52 217.677 242.519C217.174 242.393 216.242 242.008 215.176 241.516C214.094 241.016 212.829 240.385 211.64 239.745C207.907 237.78 205.579 236.592 203.947 235.866C202.323 235.143 201.418 234.892 200.531 234.788C198.982 234.612 198.013 234.934 197.333 235.794C196.605 236.714 196.134 238.332 195.873 240.961C195.134 248.669 197.579 261.64 202.408 274.971L202.408 274.972C205.797 284.372 209.997 291.079 216.541 297.607C222.168 303.221 229.911 308.561 235.64 310.736L235.643 310.737C236.969 311.252 237.752 311.509 239.3 311.694Z" fill="white" stroke="#303030"/>
<path d="M2.63972 186.903L2.63846 186.903C1.74242 187.296 1.19233 187.715 0.887546 188.166C0.594408 188.599 0.490812 189.117 0.605667 189.804L0.605894 189.806C0.768009 190.793 1.28263 191.978 2.23121 193.407C3.17736 194.832 4.53721 196.473 6.35611 198.369C9.99431 202.161 15.4304 206.933 22.9633 212.99L22.9637 212.99C32.7348 220.863 47.9091 235.512 54.8332 243.771C61.4124 251.609 64.3026 256.901 64.9961 262.397L64.9964 262.4C65.6996 268.233 66.6491 271.056 70.6103 279.034L70.6106 279.035C73.5975 285.068 77.8498 292.08 82.016 298.107C86.1946 304.151 90.2447 309.143 92.823 311.186L92.8262 311.188C93.7808 311.957 98.3718 315.16 103.03 318.308L103.031 318.309C116.449 327.432 125.834 334.607 129.666 338.733L129.668 338.734C130.557 339.698 132.224 341.931 133.356 343.662L133.359 343.667C136.708 348.901 139.278 350.733 142.578 350.768C143.227 350.768 143.67 350.713 144.05 350.584C144.426 350.457 144.775 350.244 145.216 349.875C145.694 349.47 146.044 349.115 146.321 348.683C146.599 348.253 146.821 347.721 147.006 346.948C147.383 345.377 147.587 342.912 147.851 338.482L147.851 338.482C148.828 322.18 151.085 313.5 156.303 306.053L156.306 306.049C158.434 303.085 159.25 300.716 159.25 297.886C159.25 295.677 158.538 293.786 157.213 292.395L157.21 292.392C156.444 291.573 155.951 291.177 155.18 290.926C154.361 290.66 153.212 290.549 151.094 290.417C147.998 290.229 146.163 290.008 143.72 288.395C141.338 286.821 138.361 283.914 132.886 278.452C127.891 273.507 122.661 268.515 121.298 267.412L121.298 267.412L121.292 267.407C119.926 266.266 114.585 262.427 109.404 258.869L109.404 258.869C92.1714 246.996 88.8477 244.322 75.7738 231.392C65.0708 220.827 61.0792 217.552 47.1469 207.577C41.7865 203.762 35.9242 199.452 34.1102 197.981C29.5941 194.333 27.9386 193.234 23.8192 191.234L23.8152 191.232C19.8618 189.27 15.4131 187.797 11.5081 187.015C9.55582 186.624 7.74987 186.408 6.21695 186.387C4.67282 186.366 3.45201 186.543 2.63972 186.903Z" fill="white" stroke="#303030"/>
<path d="M469.066 235.281L469.063 235.284C465.655 238.629 462.424 243.786 460.021 249.295C457.618 254.805 456.068 260.61 455.975 265.236C455.938 269 456.608 271.057 458.241 272.483L458.241 272.483L458.248 272.488C459.621 273.728 461.116 274.192 462.663 274.009C464.228 273.825 465.902 272.971 467.587 271.463C470.96 268.444 474.251 262.916 476.637 255.535L476.637 255.535C478.537 249.663 479.275 245.488 479.275 240.351L479.275 240.348C479.294 237.893 479.144 236.053 478.812 234.71C478.48 233.368 477.982 232.587 477.356 232.161L477.356 232.161L477.347 232.155C476.951 231.872 476.207 231.696 475.301 231.71C474.417 231.723 473.472 231.915 472.724 232.269C472.414 232.434 471.843 232.842 471.161 233.398C470.483 233.949 469.727 234.621 469.066 235.281Z" fill="white" stroke="#303030"/>
<path d="M417.479 244.282L417.463 244.285L417.445 244.288C416.928 244.362 411.873 245.183 406.206 246.119C400.548 247.054 392.53 248.511 388.415 249.37L388.414 249.37C384.914 250.098 382.931 250.496 381.185 250.7C379.429 250.906 377.919 250.914 375.369 250.877C371.665 250.839 367.442 250.462 362.44 249.712L355.283 248.702L354.3 249.809C354.3 249.81 354.3 249.81 354.299 249.81C350.913 253.657 351.188 258.488 354.621 260.851L354.622 260.851C357.874 263.098 361.648 263.607 370.069 262.711C372.57 262.418 378.864 261.734 385.436 261.021C387.255 260.823 389.096 260.624 390.883 260.429C399.13 259.532 407.578 258.67 409.651 258.52L409.656 258.519C410.842 258.445 411.881 258.326 412.724 258.171C413.577 258.015 414.193 257.829 414.557 257.639L414.557 257.639L414.564 257.636C415.369 257.234 416.309 256.459 417.273 255.439C418.231 254.426 419.188 253.197 420.033 251.92C420.877 250.642 421.602 249.327 422.099 248.142C422.603 246.941 422.848 245.935 422.801 245.251C422.801 245.251 422.801 245.25 422.801 245.249L422.723 244.211L420.742 244.181L420.736 244.18C420.07 244.162 419.367 244.162 418.768 244.18C418.155 244.199 417.692 244.236 417.479 244.282Z" fill="white" stroke="#303030"/>
<path d="M340.994 286.818L340.993 286.819C340.374 290.603 339.891 293.029 339.015 295.681C338.143 298.326 336.884 301.185 334.729 305.84L334.729 305.84C333.196 309.139 332.565 311.455 332.752 313.261C332.933 315.015 333.899 316.378 335.834 317.75C336.518 318.21 336.95 318.452 337.423 318.588C337.9 318.725 338.455 318.765 339.403 318.746L339.407 318.746C340.872 318.729 342.517 318.261 344.795 317.06C347.077 315.857 349.958 313.94 353.892 311.062L353.893 311.062C357.321 308.557 359.543 307 361.185 306.031C362.839 305.056 363.934 304.66 365.107 304.498L365.107 304.498C365.969 304.38 366.763 304.547 367.465 305.012C368.155 305.47 368.721 306.194 369.186 307.133C370.111 309.003 370.697 311.86 370.998 315.653L370.999 315.656C371.204 318.469 371.482 320.376 372.026 322.067C372.568 323.753 373.384 325.252 374.703 327.236C377.003 330.65 379.762 333.17 383.279 334.956C386.804 336.746 391.114 337.811 396.53 338.276L396.532 338.276C396.851 338.304 397.127 338.333 397.369 338.359C397.802 338.404 398.123 338.438 398.386 338.435C398.58 338.433 398.672 338.409 398.714 338.389C398.735 338.379 398.75 338.371 398.771 338.323C398.801 338.254 398.832 338.121 398.839 337.874C398.845 337.632 398.829 337.318 398.79 336.906C398.737 336.351 398.648 335.655 398.536 334.774C398.48 334.341 398.419 333.864 398.354 333.336C397.008 322.52 393.985 313.349 390.167 308.404L390.167 308.404L390.163 308.4C388.27 305.893 386.758 304.661 382.091 301.83L382.088 301.828C378.61 299.69 375.887 297.805 373.929 296.165C371.992 294.542 370.735 293.104 370.292 291.845C370.043 291.157 370.399 290.435 370.972 289.863C371.16 289.676 371.356 289.498 371.609 289.363C371.866 289.225 372.151 289.148 372.501 289.108C373.17 289.031 374.189 289.083 375.931 289.194C386.567 289.832 388.112 289.862 390.518 289.462C392.155 289.19 393.852 288.626 395.298 287.921C396.756 287.21 397.903 286.382 398.49 285.612L398.492 285.609C398.927 285.049 399.144 284.679 399.269 284.237C399.398 283.777 399.437 283.203 399.437 282.212C399.437 280.938 399.281 280.078 398.909 279.373C398.537 278.668 397.92 278.059 396.881 277.35C396.164 276.862 395.016 276.442 393.482 276.119C391.958 275.799 390.094 275.584 387.979 275.482C383.749 275.278 378.55 275.528 373.119 276.273C364.584 277.473 360.365 277.374 355.904 275.877L355.903 275.877C353.305 275.001 349.449 273.412 347.89 272.583C347.815 272.605 347.711 272.642 347.577 272.694C347.27 272.814 346.862 272.994 346.416 273.198C344.773 274.021 343.459 275.686 342.663 278.102C342.524 278.536 342.268 279.717 341.961 281.314C341.658 282.899 341.312 284.858 340.994 286.818Z" fill="white" stroke="#303030"/>
<path d="M155.685 345.153L155.69 345.152C157.393 344.506 159.709 344.8 161.633 345.938L161.642 345.943L161.642 345.943C163.243 346.846 164.722 348.609 167.239 352.581C167.877 353.61 168.348 354.29 168.943 354.832C169.541 355.376 170.237 355.758 171.274 356.247L171.281 356.25L171.281 356.25C172.55 356.826 173.309 357.142 175.344 357.435C177.342 357.723 180.606 357.996 186.897 358.5C189.597 358.725 192.823 359.134 194.129 359.46L194.134 359.461C195.738 359.843 197.736 360.613 199.543 361.495C201.362 362.384 202.921 363.355 203.684 364.117L203.694 364.127L203.694 364.126L205.082 365.436L205.463 365.795L205.804 365.398L206.474 364.618C206.977 364.068 207.758 363.513 209.106 362.829C210.456 362.144 212.34 361.347 215.018 360.301C215.019 360.301 215.019 360.301 215.019 360.301L219.902 358.41L230.104 360.66L155.685 345.153ZM155.685 345.153C153.032 346.13 150.803 348.339 149.437 351.01C148.072 353.68 147.598 356.756 148.38 359.432C148.985 361.493 150.565 363.835 152.618 365.893C154.667 367.946 157.139 369.665 159.471 370.513L159.471 370.513C162.541 371.632 167.131 372.44 172.067 372.836C176.996 373.232 182.231 373.212 186.578 372.693L155.685 345.153ZM186.578 372.693C190.785 372.19 194.326 371.585 197.121 370.895C199.929 370.201 201.938 369.433 203.118 368.625L203.117 368.625L203.125 368.62C203.535 368.35 203.858 368.138 204.108 367.988C204.338 367.85 204.572 367.721 204.78 367.678C204.894 367.654 205.067 367.641 205.242 367.731C205.425 367.825 205.515 367.981 205.557 368.098C205.598 368.208 205.611 368.322 205.617 368.409C205.624 368.5 205.625 368.602 205.625 368.701V368.7C205.625 368.7 205.626 368.713 205.633 368.742C205.642 368.773 205.657 368.815 205.683 368.87C205.735 368.981 205.818 369.122 205.939 369.292C206.181 369.631 206.542 370.049 207.006 370.527C207.933 371.481 209.233 372.632 210.703 373.815C213.648 376.185 217.222 378.636 219.777 379.846L219.779 379.847C222.243 381.03 224.25 381.74 226.632 382.128C229.025 382.517 231.816 382.584 235.859 382.454L235.859 382.454C242.989 382.228 247.635 382.606 258.636 384.255C262.657 384.852 265.875 385.157 268.3 385.184C269.512 385.198 270.514 385.142 271.313 385.023C272.119 384.902 272.684 384.721 273.045 384.506L273.046 384.505C273.432 384.278 273.674 384.072 273.799 383.915C273.849 383.852 273.87 383.812 273.878 383.791C273.798 383.574 273.768 383.329 273.83 383.102C273.881 382.916 274.02 382.695 274.264 382.606C274.272 382.583 274.28 382.557 274.287 382.526C274.339 382.322 274.375 382.011 274.375 381.644C274.375 380.697 274.007 379.539 273.299 378.254C272.596 376.976 271.577 375.609 270.326 374.254C267.824 371.541 264.433 368.914 260.891 367.166L260.889 367.165C258.783 366.115 257.531 365.789 254.112 365.344C248.911 364.704 243.563 363.651 230.105 360.66L186.578 372.693ZM273.882 383.773C273.882 383.773 273.881 383.776 273.881 383.781C273.883 383.775 273.883 383.773 273.882 383.773Z" fill="white" stroke="#303030"/>
<path d="M425.05 375.192L425.05 375.192L425.039 375.196C423.779 375.633 422.845 376.088 421.924 376.787C420.994 377.491 420.057 378.458 418.808 379.946L418.808 379.946L418.805 379.949C417.3 381.713 413.958 385.459 411.37 388.303L411.368 388.305C408.784 391.106 405.985 394.309 405.132 395.382C403.022 398.134 401.727 400.684 401.251 402.872C400.777 405.053 401.121 406.834 402.231 408.143L402.231 408.143L402.233 408.145C403.211 409.313 404.767 409.743 407.171 409.239C409.585 408.733 412.742 407.301 416.74 404.897C418.68 403.706 421.627 401.733 423.262 400.51C424.59 399.503 425.461 398.884 426.37 398.448C427.285 398.009 428.216 397.766 429.645 397.466C433.973 396.516 437.397 395.405 439.942 394.131C442.493 392.854 444.112 391.438 444.906 389.906C445.596 388.571 445.526 386.997 444.819 385.331C444.111 383.662 442.778 381.943 441.025 380.391C437.513 377.283 432.435 374.945 427.693 374.999V374.999H427.688C427.083 374.999 426.468 375.027 425.971 375.068C425.722 375.088 425.507 375.112 425.339 375.136C425.255 375.148 425.187 375.16 425.134 375.171C425.107 375.177 425.087 375.182 425.072 375.186C425.064 375.188 425.058 375.189 425.055 375.19C425.051 375.192 425.05 375.192 425.05 375.192Z" fill="white" stroke="#303030"/>
<path d="M343.668 391.729L343.661 391.732L343.654 391.734C342.391 392.142 341.144 392.865 340.124 393.726C339.099 394.591 338.34 395.563 338.005 396.447C337.811 396.965 337.625 398.243 337.625 399.338C337.625 400.699 337.999 401.896 338.751 402.948C339.506 404.005 340.662 404.94 342.261 405.737L342.261 405.737L342.264 405.739C345.722 407.5 349.109 407.619 351.604 406.543C354.079 405.477 355.732 403.215 355.75 400.048C355.75 397.485 354.926 395.444 353.458 394.01C351.987 392.572 349.817 391.697 347.04 391.571L347.036 391.57C346.34 391.534 345.598 391.534 344.969 391.566C344.315 391.599 343.852 391.664 343.668 391.729Z" fill="white" stroke="#303030"/>
<circle cx="6" cy="330.5" r="3" fill="#FCB500"/>
<path d="M20.202 336.162C19.314 336.162 18.546 335.976 17.898 335.604C17.25 335.232 16.746 334.71 16.386 334.038C16.038 333.354 15.864 332.544 15.864 331.608C15.864 330.672 16.038 329.868 16.386 329.196C16.746 328.512 17.25 327.984 17.898 327.612C18.546 327.24 19.314 327.054 20.202 327.054C21.066 327.054 21.822 327.24 22.47 327.612C23.118 327.984 23.622 328.512 23.982 329.196C24.342 329.868 24.522 330.672 24.522 331.608C24.522 332.544 24.342 333.354 23.982 334.038C23.622 334.71 23.118 335.232 22.47 335.604C21.822 335.976 21.066 336.162 20.202 336.162ZM20.202 334.758C20.946 334.758 21.546 334.488 22.002 333.948C22.458 333.408 22.686 332.628 22.686 331.608C22.686 330.588 22.458 329.814 22.002 329.286C21.546 328.746 20.946 328.476 20.202 328.476C19.446 328.476 18.84 328.746 18.384 329.286C17.928 329.814 17.7 330.588 17.7 331.608C17.7 332.628 17.928 333.408 18.384 333.948C18.84 334.488 19.446 334.758 20.202 334.758ZM27.2674 336.072C26.9074 336.072 26.6194 335.964 26.4034 335.748C26.1994 335.532 26.0974 335.256 26.0974 334.92C26.0974 334.584 26.1994 334.314 26.4034 334.11C26.6194 333.894 26.9074 333.786 27.2674 333.786C27.6154 333.786 27.8914 333.894 28.0954 334.11C28.2994 334.314 28.4014 334.584 28.4014 334.92C28.4014 335.256 28.2994 335.532 28.0954 335.748C27.8914 335.964 27.6154 336.072 27.2674 336.072ZM41.289 336.162C40.005 336.162 38.907 335.898 37.995 335.37C37.083 334.842 36.381 334.092 35.889 333.12C35.409 332.136 35.169 330.978 35.169 329.646C35.169 328.314 35.409 327.162 35.889 326.19C36.381 325.218 37.083 324.468 37.995 323.94C38.907 323.412 40.005 323.148 41.289 323.148C41.997 323.148 42.675 323.244 43.323 323.436C43.983 323.628 44.553 323.904 45.033 324.264C45.297 324.432 45.447 324.636 45.483 324.876C45.531 325.104 45.495 325.314 45.375 325.506C45.267 325.686 45.105 325.806 44.889 325.866C44.673 325.926 44.433 325.866 44.169 325.686C43.761 325.386 43.317 325.164 42.837 325.02C42.369 324.876 41.871 324.804 41.343 324.804C39.975 324.804 38.931 325.224 38.211 326.064C37.491 326.904 37.131 328.098 37.131 329.646C37.131 331.194 37.491 332.394 38.211 333.246C38.931 334.086 39.975 334.506 41.343 334.506C41.871 334.506 42.375 334.434 42.855 334.29C43.347 334.146 43.809 333.918 44.241 333.606C44.505 333.438 44.739 333.384 44.943 333.444C45.147 333.492 45.303 333.606 45.411 333.786C45.519 333.966 45.555 334.17 45.519 334.398C45.483 334.614 45.357 334.8 45.141 334.956C44.637 335.352 44.049 335.652 43.377 335.856C42.717 336.06 42.021 336.162 41.289 336.162ZM49.4462 339.366C49.1102 339.366 48.8762 339.24 48.7442 338.988C48.6242 338.748 48.6362 338.466 48.7802 338.142L49.8422 335.766L46.6382 328.332C46.4942 328.008 46.4882 327.72 46.6202 327.468C46.7642 327.216 47.0402 327.09 47.4482 327.09C47.6642 327.09 47.8382 327.144 47.9702 327.252C48.1142 327.36 48.2402 327.546 48.3482 327.81L50.8142 333.894L53.3162 327.81C53.4242 327.534 53.5502 327.348 53.6942 327.252C53.8382 327.144 54.0362 327.09 54.2882 327.09C54.6122 327.09 54.8342 327.216 54.9542 327.468C55.0742 327.72 55.0682 328.002 54.9362 328.314L50.4362 338.664C50.3162 338.94 50.1782 339.126 50.0222 339.222C49.8782 339.318 49.6862 339.366 49.4462 339.366ZM57.7307 336.126C57.1907 336.126 56.9207 335.838 56.9207 335.262V328.062C56.9207 327.414 57.1967 327.09 57.7487 327.09C58.0127 327.09 58.2167 327.156 58.3607 327.288C58.5047 327.42 58.6247 327.57 58.7207 327.738L61.6007 332.778L64.4627 327.738C64.5707 327.558 64.6967 327.408 64.8407 327.288C64.9847 327.156 65.1827 327.09 65.4347 327.09C65.9867 327.09 66.2627 327.414 66.2627 328.062V335.262C66.2627 335.838 65.9927 336.126 65.4527 336.126C64.9247 336.126 64.6607 335.838 64.6607 335.262V330.042L62.2307 334.254C62.1707 334.362 62.0927 334.458 61.9967 334.542C61.9007 334.626 61.7687 334.668 61.6007 334.668C61.4207 334.668 61.2827 334.626 61.1867 334.542C61.1027 334.446 61.0307 334.35 60.9707 334.254L58.5227 330.042V335.262C58.5227 335.838 58.2587 336.126 57.7307 336.126ZM71.8229 336.162C71.2109 336.162 70.6649 336.042 70.1849 335.802C69.7049 335.562 69.3209 335.238 69.0329 334.83C68.7569 334.422 68.6189 333.96 68.6189 333.444C68.6189 332.796 68.7809 332.286 69.1049 331.914C69.4409 331.542 69.9869 331.272 70.7429 331.104C71.5109 330.936 72.5429 330.852 73.8389 330.852H74.4509V330.384C74.4509 329.7 74.3069 329.208 74.0189 328.908C73.7309 328.608 73.2569 328.458 72.5969 328.458C72.2129 328.458 71.8109 328.506 71.3909 328.602C70.9829 328.698 70.5569 328.86 70.1129 329.088C69.8609 329.208 69.6509 329.226 69.4829 329.142C69.3269 329.058 69.2189 328.926 69.1589 328.746C69.0989 328.566 69.1049 328.38 69.1769 328.188C69.2489 327.996 69.3989 327.852 69.6269 327.756C70.1549 327.516 70.6769 327.342 71.1929 327.234C71.7089 327.114 72.1949 327.054 72.6509 327.054C73.8509 327.054 74.7389 327.342 75.3149 327.918C75.8909 328.482 76.1789 329.37 76.1789 330.582V335.208C76.1789 335.82 75.8969 336.126 75.3329 336.126C74.7569 336.126 74.4689 335.82 74.4689 335.208V334.542C74.2529 335.046 73.9169 335.442 73.4609 335.73C73.0049 336.018 72.4589 336.162 71.8229 336.162ZM72.1829 334.866C72.8309 334.866 73.3709 334.638 73.8029 334.182C74.2349 333.726 74.4509 333.15 74.4509 332.454V331.968H73.8569C72.9809 331.968 72.2909 332.01 71.7869 332.094C71.2949 332.178 70.9409 332.322 70.7249 332.526C70.5209 332.718 70.4189 332.988 70.4189 333.336C70.4189 333.792 70.5749 334.164 70.8869 334.452C71.1989 334.728 71.6309 334.866 72.1829 334.866ZM81.6298 336.126C81.0178 336.126 80.7118 335.82 80.7118 335.208V328.674H78.2638C77.7358 328.674 77.4718 328.428 77.4718 327.936C77.4718 327.456 77.7358 327.216 78.2638 327.216H84.9778C85.5058 327.216 85.7698 327.456 85.7698 327.936C85.7698 328.428 85.5058 328.674 84.9778 328.674H82.5298V335.208C82.5298 335.82 82.2298 336.126 81.6298 336.126ZM88.0204 339.366C87.4204 339.366 87.1204 339.06 87.1204 338.448V328.008C87.1204 327.396 87.4144 327.09 88.0024 327.09C88.6024 327.09 88.9024 327.396 88.9024 328.008V328.692C89.1664 328.188 89.5564 327.792 90.0724 327.504C90.5884 327.204 91.1764 327.054 91.8364 327.054C92.6164 327.054 93.2944 327.24 93.8704 327.612C94.4584 327.984 94.9084 328.512 95.2204 329.196C95.5444 329.868 95.7064 330.672 95.7064 331.608C95.7064 332.544 95.5444 333.354 95.2204 334.038C94.9084 334.722 94.4584 335.25 93.8704 335.622C93.2944 335.982 92.6164 336.162 91.8364 336.162C91.1884 336.162 90.6064 336.024 90.0904 335.748C89.5864 335.46 89.2024 335.07 88.9384 334.578V338.448C88.9384 339.06 88.6324 339.366 88.0204 339.366ZM91.3864 334.758C92.1424 334.758 92.7424 334.488 93.1864 333.948C93.6424 333.408 93.8704 332.628 93.8704 331.608C93.8704 330.588 93.6424 329.814 93.1864 329.286C92.7424 328.746 92.1424 328.476 91.3864 328.476C90.6304 328.476 90.0244 328.746 89.5684 329.286C89.1244 329.814 88.9024 330.588 88.9024 331.608C88.9024 332.628 89.1244 333.408 89.5684 333.948C90.0244 334.488 90.6304 334.758 91.3864 334.758ZM100.757 336.162C100.145 336.162 99.5985 336.042 99.1185 335.802C98.6385 335.562 98.2545 335.238 97.9665 334.83C97.6905 334.422 97.5525 333.96 97.5525 333.444C97.5525 332.796 97.7145 332.286 98.0385 331.914C98.3745 331.542 98.9205 331.272 99.6765 331.104C100.445 330.936 101.477 330.852 102.773 330.852H103.385V330.384C103.385 329.7 103.241 329.208 102.953 328.908C102.665 328.608 102.191 328.458 101.531 328.458C101.147 328.458 100.745 328.506 100.325 328.602C99.9165 328.698 99.4905 328.86 99.0465 329.088C98.7945 329.208 98.5845 329.226 98.4165 329.142C98.2605 329.058 98.1525 328.926 98.0925 328.746C98.0325 328.566 98.0385 328.38 98.1105 328.188C98.1825 327.996 98.3325 327.852 98.5605 327.756C99.0885 327.516 99.6105 327.342 100.127 327.234C100.643 327.114 101.129 327.054 101.585 327.054C102.785 327.054 103.673 327.342 104.249 327.918C104.825 328.482 105.113 329.37 105.113 330.582V335.208C105.113 335.82 104.831 336.126 104.267 336.126C103.691 336.126 103.403 335.82 103.403 335.208V334.542C103.187 335.046 102.851 335.442 102.395 335.73C101.939 336.018 101.393 336.162 100.757 336.162ZM101.117 334.866C101.765 334.866 102.305 334.638 102.737 334.182C103.169 333.726 103.385 333.15 103.385 332.454V331.968H102.791C101.915 331.968 101.225 332.01 100.721 332.094C100.229 332.178 99.8745 332.322 99.6585 332.526C99.4545 332.718 99.3525 332.988 99.3525 333.336C99.3525 333.792 99.5085 334.164 99.8205 334.452C100.133 334.728 100.565 334.866 101.117 334.866Z" fill="#303030"/>
<circle cx="122" cy="387.5" r="3" fill="#FCB500"/>
<path d="M136.202 393.162C135.314 393.162 134.546 392.976 133.898 392.604C133.25 392.232 132.746 391.71 132.386 391.038C132.038 390.354 131.864 389.544 131.864 388.608C131.864 387.672 132.038 386.868 132.386 386.196C132.746 385.512 133.25 384.984 133.898 384.612C134.546 384.24 135.314 384.054 136.202 384.054C137.066 384.054 137.822 384.24 138.47 384.612C139.118 384.984 139.622 385.512 139.982 386.196C140.342 386.868 140.522 387.672 140.522 388.608C140.522 389.544 140.342 390.354 139.982 391.038C139.622 391.71 139.118 392.232 138.47 392.604C137.822 392.976 137.066 393.162 136.202 393.162ZM136.202 391.758C136.946 391.758 137.546 391.488 138.002 390.948C138.458 390.408 138.686 389.628 138.686 388.608C138.686 387.588 138.458 386.814 138.002 386.286C137.546 385.746 136.946 385.476 136.202 385.476C135.446 385.476 134.84 385.746 134.384 386.286C133.928 386.814 133.7 387.588 133.7 388.608C133.7 389.628 133.928 390.408 134.384 390.948C134.84 391.488 135.446 391.758 136.202 391.758ZM143.267 393.072C142.907 393.072 142.619 392.964 142.403 392.748C142.199 392.532 142.097 392.256 142.097 391.92C142.097 391.584 142.199 391.314 142.403 391.11C142.619 390.894 142.907 390.786 143.267 390.786C143.615 390.786 143.891 390.894 144.095 391.11C144.299 391.314 144.401 391.584 144.401 391.92C144.401 392.256 144.299 392.532 144.095 392.748C143.891 392.964 143.615 393.072 143.267 393.072ZM159.935 393.126C159.311 393.126 158.999 392.808 158.999 392.172V387.762H157.145C156.629 387.762 156.203 387.846 155.867 388.014C155.543 388.17 155.255 388.482 155.003 388.95L153.041 392.55C152.885 392.838 152.681 393.018 152.429 393.09C152.189 393.162 151.961 393.144 151.745 393.036C151.541 392.928 151.397 392.76 151.313 392.532C151.229 392.304 151.265 392.04 151.421 391.74L152.933 388.968C153.317 388.26 153.785 387.804 154.337 387.6C153.377 387.408 152.633 387.006 152.105 386.394C151.577 385.782 151.313 384.996 151.313 384.036C151.313 382.86 151.685 381.948 152.429 381.3C153.173 380.64 154.229 380.31 155.597 380.31H159.863C160.523 380.31 160.853 380.646 160.853 381.318V392.172C160.853 392.808 160.547 393.126 159.935 393.126ZM155.903 386.358H158.999V381.804H155.903C154.055 381.804 153.131 382.56 153.131 384.072C153.131 385.596 154.055 386.358 155.903 386.358ZM164.61 393C163.998 393 163.692 392.694 163.692 392.082V385.152C163.692 384.528 163.998 384.216 164.61 384.216H168.174C169.254 384.216 170.04 384.42 170.532 384.828C171.036 385.224 171.288 385.788 171.288 386.52C171.288 386.976 171.156 387.378 170.892 387.726C170.64 388.062 170.292 388.308 169.848 388.464C170.4 388.596 170.826 388.848 171.126 389.22C171.426 389.592 171.576 390.036 171.576 390.552C171.576 391.308 171.294 391.908 170.73 392.352C170.166 392.784 169.362 393 168.318 393H164.61ZM165.402 387.942H168.048C168.54 387.942 168.918 387.828 169.182 387.6C169.458 387.372 169.596 387.06 169.596 386.664C169.596 386.256 169.458 385.944 169.182 385.728C168.918 385.512 168.54 385.404 168.048 385.404H165.402V387.942ZM165.402 391.83H168.21C169.338 391.83 169.902 391.374 169.902 390.462C169.902 389.562 169.338 389.112 168.21 389.112H165.402V391.83ZM176.52 393.162C175.908 393.162 175.362 393.042 174.882 392.802C174.402 392.562 174.018 392.238 173.73 391.83C173.454 391.422 173.316 390.96 173.316 390.444C173.316 389.796 173.478 389.286 173.802 388.914C174.138 388.542 174.684 388.272 175.44 388.104C176.208 387.936 177.24 387.852 178.536 387.852H179.148V387.384C179.148 386.7 179.004 386.208 178.716 385.908C178.428 385.608 177.954 385.458 177.294 385.458C176.91 385.458 176.508 385.506 176.088 385.602C175.68 385.698 175.254 385.86 174.81 386.088C174.558 386.208 174.348 386.226 174.18 386.142C174.024 386.058 173.916 385.926 173.856 385.746C173.796 385.566 173.802 385.38 173.874 385.188C173.946 384.996 174.096 384.852 174.324 384.756C174.852 384.516 175.374 384.342 175.89 384.234C176.406 384.114 176.892 384.054 177.348 384.054C178.548 384.054 179.436 384.342 180.012 384.918C180.588 385.482 180.876 386.37 180.876 387.582V392.208C180.876 392.82 180.594 393.126 180.03 393.126C179.454 393.126 179.166 392.82 179.166 392.208V391.542C178.95 392.046 178.614 392.442 178.158 392.73C177.702 393.018 177.156 393.162 176.52 393.162ZM176.88 391.866C177.528 391.866 178.068 391.638 178.5 391.182C178.932 390.726 179.148 390.15 179.148 389.454V388.968H178.554C177.678 388.968 176.988 389.01 176.484 389.094C175.992 389.178 175.638 389.322 175.422 389.526C175.218 389.718 175.116 389.988 175.116 390.336C175.116 390.792 175.272 391.164 175.584 391.452C175.896 391.728 176.328 391.866 176.88 391.866Z" fill="#303030"/>
<circle cx="243" cy="397.5" r="3" fill="#FCB500"/>
<path d="M257.202 403.162C256.314 403.162 255.546 402.976 254.898 402.604C254.25 402.232 253.746 401.71 253.386 401.038C253.038 400.354 252.864 399.544 252.864 398.608C252.864 397.672 253.038 396.868 253.386 396.196C253.746 395.512 254.25 394.984 254.898 394.612C255.546 394.24 256.314 394.054 257.202 394.054C258.066 394.054 258.822 394.24 259.47 394.612C260.118 394.984 260.622 395.512 260.982 396.196C261.342 396.868 261.522 397.672 261.522 398.608C261.522 399.544 261.342 400.354 260.982 401.038C260.622 401.71 260.118 402.232 259.47 402.604C258.822 402.976 258.066 403.162 257.202 403.162ZM257.202 401.758C257.946 401.758 258.546 401.488 259.002 400.948C259.458 400.408 259.686 399.628 259.686 398.608C259.686 397.588 259.458 396.814 259.002 396.286C258.546 395.746 257.946 395.476 257.202 395.476C256.446 395.476 255.84 395.746 255.384 396.286C254.928 396.814 254.7 397.588 254.7 398.608C254.7 399.628 254.928 400.408 255.384 400.948C255.84 401.488 256.446 401.758 257.202 401.758ZM264.267 403.072C263.907 403.072 263.619 402.964 263.403 402.748C263.199 402.532 263.097 402.256 263.097 401.92C263.097 401.584 263.199 401.314 263.403 401.11C263.619 400.894 263.907 400.786 264.267 400.786C264.615 400.786 264.891 400.894 265.095 401.11C265.299 401.314 265.401 401.584 265.401 401.92C265.401 402.256 265.299 402.532 265.095 402.748C264.891 402.964 264.615 403.072 264.267 403.072ZM273.609 403C272.937 403 272.601 402.664 272.601 401.992V391.318C272.601 390.646 272.937 390.31 273.609 390.31H280.503C281.019 390.31 281.277 390.556 281.277 391.048C281.277 391.564 281.019 391.822 280.503 391.822H274.401V395.764H278.109C279.441 395.764 280.479 396.07 281.223 396.682C281.979 397.282 282.357 398.176 282.357 399.364C282.357 400.552 281.979 401.458 281.223 402.082C280.479 402.694 279.441 403 278.109 403H273.609ZM274.401 401.488H277.893C279.657 401.488 280.539 400.786 280.539 399.382C280.539 397.978 279.657 397.276 277.893 397.276H274.401V401.488ZM287.307 403.162C286.695 403.162 286.149 403.042 285.669 402.802C285.189 402.562 284.805 402.238 284.517 401.83C284.241 401.422 284.103 400.96 284.103 400.444C284.103 399.796 284.265 399.286 284.589 398.914C284.925 398.542 285.471 398.272 286.227 398.104C286.995 397.936 288.027 397.852 289.323 397.852H289.935V397.384C289.935 396.7 289.791 396.208 289.503 395.908C289.215 395.608 288.741 395.458 288.081 395.458C287.697 395.458 287.295 395.506 286.875 395.602C286.467 395.698 286.041 395.86 285.597 396.088C285.345 396.208 285.135 396.226 284.967 396.142C284.811 396.058 284.703 395.926 284.643 395.746C284.583 395.566 284.589 395.38 284.661 395.188C284.733 394.996 284.883 394.852 285.111 394.756C285.639 394.516 286.161 394.342 286.677 394.234C287.193 394.114 287.679 394.054 288.135 394.054C289.335 394.054 290.223 394.342 290.799 394.918C291.375 395.482 291.663 396.37 291.663 397.582V402.208C291.663 402.82 291.381 403.126 290.817 403.126C290.241 403.126 289.953 402.82 289.953 402.208V401.542C289.737 402.046 289.401 402.442 288.945 402.73C288.489 403.018 287.943 403.162 287.307 403.162ZM287.667 401.866C288.315 401.866 288.855 401.638 289.287 401.182C289.719 400.726 289.935 400.15 289.935 399.454V398.968H289.341C288.465 398.968 287.775 399.01 287.271 399.094C286.779 399.178 286.425 399.322 286.209 399.526C286.005 399.718 285.903 399.988 285.903 400.336C285.903 400.792 286.059 401.164 286.371 401.452C286.683 401.728 287.115 401.866 287.667 401.866ZM301.236 403.126C300.636 403.126 300.336 402.82 300.336 402.208V395.674H297.15V396.736C297.15 398.524 296.952 399.91 296.556 400.894C296.16 401.878 295.5 402.586 294.576 403.018C294.324 403.126 294.096 403.138 293.892 403.054C293.688 402.982 293.538 402.856 293.442 402.676C293.346 402.496 293.322 402.304 293.37 402.1C293.43 401.896 293.58 401.722 293.82 401.578C294.468 401.206 294.9 400.648 295.116 399.904C295.344 399.148 295.458 398.074 295.458 396.682V395.242C295.458 394.558 295.8 394.216 296.484 394.216H301.128C301.812 394.216 302.154 394.558 302.154 395.242V402.208C302.154 402.82 301.848 403.126 301.236 403.126ZM305.735 403.126C305.171 403.126 304.889 402.802 304.889 402.154V394.972C304.889 394.384 305.165 394.09 305.717 394.09C306.269 394.09 306.545 394.384 306.545 394.972V400.588L310.955 394.684C311.063 394.528 311.195 394.39 311.351 394.27C311.507 394.15 311.723 394.09 311.999 394.09C312.551 394.09 312.827 394.414 312.827 395.062V402.244C312.827 402.832 312.557 403.126 312.017 403.126C311.453 403.126 311.171 402.832 311.171 402.244V396.646L306.761 402.55C306.653 402.694 306.521 402.826 306.365 402.946C306.209 403.066 305.999 403.126 305.735 403.126Z" fill="#303030"/>
<circle cx="340" cy="352.5" r="3" fill="#FCB500"/>
<path d="M354.202 358.162C353.314 358.162 352.546 357.976 351.898 357.604C351.25 357.232 350.746 356.71 350.386 356.038C350.038 355.354 349.864 354.544 349.864 353.608C349.864 352.672 350.038 351.868 350.386 351.196C350.746 350.512 351.25 349.984 351.898 349.612C352.546 349.24 353.314 349.054 354.202 349.054C355.066 349.054 355.822 349.24 356.47 349.612C357.118 349.984 357.622 350.512 357.982 351.196C358.342 351.868 358.522 352.672 358.522 353.608C358.522 354.544 358.342 355.354 357.982 356.038C357.622 356.71 357.118 357.232 356.47 357.604C355.822 357.976 355.066 358.162 354.202 358.162ZM354.202 356.758C354.946 356.758 355.546 356.488 356.002 355.948C356.458 355.408 356.686 354.628 356.686 353.608C356.686 352.588 356.458 351.814 356.002 351.286C355.546 350.746 354.946 350.476 354.202 350.476C353.446 350.476 352.84 350.746 352.384 351.286C351.928 351.814 351.7 352.588 351.7 353.608C351.7 354.628 351.928 355.408 352.384 355.948C352.84 356.488 353.446 356.758 354.202 356.758ZM361.267 358.072C360.907 358.072 360.619 357.964 360.403 357.748C360.199 357.532 360.097 357.256 360.097 356.92C360.097 356.584 360.199 356.314 360.403 356.11C360.619 355.894 360.907 355.786 361.267 355.786C361.615 355.786 361.891 355.894 362.095 356.11C362.299 356.314 362.401 356.584 362.401 356.92C362.401 357.256 362.299 357.532 362.095 357.748C361.891 357.964 361.615 358.072 361.267 358.072ZM375.289 358.162C374.005 358.162 372.907 357.898 371.995 357.37C371.083 356.842 370.381 356.092 369.889 355.12C369.409 354.136 369.169 352.978 369.169 351.646C369.169 350.314 369.409 349.162 369.889 348.19C370.381 347.218 371.083 346.468 371.995 345.94C372.907 345.412 374.005 345.148 375.289 345.148C375.997 345.148 376.675 345.244 377.323 345.436C377.983 345.628 378.553 345.904 379.033 346.264C379.297 346.432 379.447 346.636 379.483 346.876C379.531 347.104 379.495 347.314 379.375 347.506C379.267 347.686 379.105 347.806 378.889 347.866C378.673 347.926 378.433 347.866 378.169 347.686C377.761 347.386 377.317 347.164 376.837 347.02C376.369 346.876 375.871 346.804 375.343 346.804C373.975 346.804 372.931 347.224 372.211 348.064C371.491 348.904 371.131 350.098 371.131 351.646C371.131 353.194 371.491 354.394 372.211 355.246C372.931 356.086 373.975 356.506 375.343 356.506C375.871 356.506 376.375 356.434 376.855 356.29C377.347 356.146 377.809 355.918 378.241 355.606C378.505 355.438 378.739 355.384 378.943 355.444C379.147 355.492 379.303 355.606 379.411 355.786C379.519 355.966 379.555 356.17 379.519 356.398C379.483 356.614 379.357 356.8 379.141 356.956C378.637 357.352 378.049 357.652 377.377 357.856C376.717 358.06 376.021 358.162 375.289 358.162ZM383.446 361.366C383.11 361.366 382.876 361.24 382.744 360.988C382.624 360.748 382.636 360.466 382.78 360.142L383.842 357.766L380.638 350.332C380.494 350.008 380.488 349.72 380.62 349.468C380.764 349.216 381.04 349.09 381.448 349.09C381.664 349.09 381.838 349.144 381.97 349.252C382.114 349.36 382.24 349.546 382.348 349.81L384.814 355.894L387.316 349.81C387.424 349.534 387.55 349.348 387.694 349.252C387.838 349.144 388.036 349.09 388.288 349.09C388.612 349.09 388.834 349.216 388.954 349.468C389.074 349.72 389.068 350.002 388.936 350.314L384.436 360.664C384.316 360.94 384.178 361.126 384.022 361.222C383.878 361.318 383.686 361.366 383.446 361.366ZM397.252 358.126C396.652 358.126 396.352 357.82 396.352 357.208V350.674H393.166V351.736C393.166 353.524 392.968 354.91 392.572 355.894C392.176 356.878 391.516 357.586 390.592 358.018C390.34 358.126 390.112 358.138 389.908 358.054C389.704 357.982 389.554 357.856 389.458 357.676C389.362 357.496 389.338 357.304 389.386 357.1C389.446 356.896 389.596 356.722 389.836 356.578C390.484 356.206 390.916 355.648 391.132 354.904C391.36 354.148 391.474 353.074 391.474 351.682V350.242C391.474 349.558 391.816 349.216 392.5 349.216H397.144C397.828 349.216 398.17 349.558 398.17 350.242V357.208C398.17 357.82 397.864 358.126 397.252 358.126ZM403.731 358.162C403.119 358.162 402.573 358.042 402.093 357.802C401.613 357.562 401.229 357.238 400.941 356.83C400.665 356.422 400.527 355.96 400.527 355.444C400.527 354.796 400.689 354.286 401.013 353.914C401.349 353.542 401.895 353.272 402.651 353.104C403.419 352.936 404.451 352.852 405.747 352.852H406.359V352.384C406.359 351.7 406.215 351.208 405.927 350.908C405.639 350.608 405.165 350.458 404.505 350.458C404.121 350.458 403.719 350.506 403.299 350.602C402.891 350.698 402.465 350.86 402.021 351.088C401.769 351.208 401.559 351.226 401.391 351.142C401.235 351.058 401.127 350.926 401.067 350.746C401.007 350.566 401.013 350.38 401.085 350.188C401.157 349.996 401.307 349.852 401.535 349.756C402.063 349.516 402.585 349.342 403.101 349.234C403.617 349.114 404.103 349.054 404.559 349.054C405.759 349.054 406.647 349.342 407.223 349.918C407.799 350.482 408.087 351.37 408.087 352.582V357.208C408.087 357.82 407.805 358.126 407.241 358.126C406.665 358.126 406.377 357.82 406.377 357.208V356.542C406.161 357.046 405.825 357.442 405.369 357.73C404.913 358.018 404.367 358.162 403.731 358.162ZM404.091 356.866C404.739 356.866 405.279 356.638 405.711 356.182C406.143 355.726 406.359 355.15 406.359 354.454V353.968H405.765C404.889 353.968 404.199 354.01 403.695 354.094C403.203 354.178 402.849 354.322 402.633 354.526C402.429 354.718 402.327 354.988 402.327 355.336C402.327 355.792 402.483 356.164 402.795 356.452C403.107 356.728 403.539 356.866 404.091 356.866ZM411.702 358C411.09 358 410.784 357.694 410.784 357.082V350.152C410.784 349.528 411.09 349.216 411.702 349.216H415.266C416.346 349.216 417.132 349.42 417.624 349.828C418.128 350.224 418.38 350.788 418.38 351.52C418.38 351.976 418.248 352.378 417.984 352.726C417.732 353.062 417.384 353.308 416.94 353.464C417.492 353.596 417.918 353.848 418.218 354.22C418.518 354.592 418.668 355.036 418.668 355.552C418.668 356.308 418.386 356.908 417.822 357.352C417.258 357.784 416.454 358 415.41 358H411.702ZM412.494 352.942H415.14C415.632 352.942 416.01 352.828 416.274 352.6C416.55 352.372 416.688 352.06 416.688 351.664C416.688 351.256 416.55 350.944 416.274 350.728C416.01 350.512 415.632 350.404 415.14 350.404H412.494V352.942ZM412.494 356.83H415.302C416.43 356.83 416.994 356.374 416.994 355.462C416.994 354.562 416.43 354.112 415.302 354.112H412.494V356.83ZM424.926 358.162C423.486 358.162 422.352 357.76 421.524 356.956C420.696 356.14 420.282 355.03 420.282 353.626C420.282 352.726 420.462 351.934 420.822 351.25C421.194 350.554 421.704 350.014 422.352 349.63C423 349.246 423.744 349.054 424.584 349.054C425.796 349.054 426.75 349.444 427.446 350.224C428.142 350.992 428.49 352.054 428.49 353.41C428.49 353.818 428.25 354.022 427.77 354.022H422.046C422.178 355.846 423.144 356.758 424.944 356.758C425.304 356.758 425.682 356.716 426.078 356.632C426.474 356.536 426.858 356.368 427.23 356.128C427.482 355.984 427.698 355.936 427.878 355.984C428.07 356.02 428.208 356.122 428.292 356.29C428.376 356.446 428.388 356.626 428.328 356.83C428.28 357.022 428.142 357.19 427.914 357.334C427.506 357.61 427.026 357.82 426.474 357.964C425.934 358.096 425.418 358.162 424.926 358.162ZM424.656 350.332C423.9 350.332 423.3 350.566 422.856 351.034C422.412 351.502 422.142 352.126 422.046 352.906H426.96C426.924 352.09 426.708 351.46 426.312 351.016C425.916 350.56 425.364 350.332 424.656 350.332ZM434.535 358.162C433.635 358.162 432.855 357.976 432.195 357.604C431.547 357.22 431.043 356.686 430.683 356.002C430.323 355.306 430.143 354.49 430.143 353.554C430.143 352.162 430.539 351.064 431.331 350.26C432.123 349.456 433.191 349.054 434.535 349.054C434.955 349.054 435.393 349.12 435.849 349.252C436.317 349.372 436.749 349.576 437.145 349.864C437.337 349.984 437.445 350.14 437.469 350.332C437.505 350.512 437.475 350.686 437.379 350.854C437.295 351.01 437.169 351.118 437.001 351.178C436.833 351.226 436.641 351.19 436.425 351.07C436.137 350.866 435.843 350.722 435.543 350.638C435.243 350.542 434.955 350.494 434.679 350.494C433.827 350.494 433.167 350.764 432.699 351.304C432.243 351.832 432.015 352.588 432.015 353.572C432.015 354.556 432.243 355.33 432.699 355.894C433.167 356.446 433.827 356.722 434.679 356.722C434.955 356.722 435.237 356.68 435.525 356.596C435.825 356.512 436.125 356.368 436.425 356.164C436.641 356.044 436.827 356.014 436.983 356.074C437.151 356.134 437.271 356.248 437.343 356.416C437.427 356.572 437.451 356.746 437.415 356.938C437.391 357.118 437.283 357.268 437.091 357.388C436.707 357.664 436.287 357.862 435.831 357.982C435.387 358.102 434.955 358.162 434.535 358.162ZM440.107 358.126C439.543 358.126 439.261 357.802 439.261 357.154V349.972C439.261 349.384 439.537 349.09 440.089 349.09C440.641 349.09 440.917 349.384 440.917 349.972V355.588L445.327 349.684C445.435 349.528 445.567 349.39 445.723 349.27C445.879 349.15 446.095 349.09 446.371 349.09C446.923 349.09 447.199 349.414 447.199 350.062V357.244C447.199 357.832 446.929 358.126 446.389 358.126C445.825 358.126 445.543 357.832 445.543 357.244V351.646L441.133 357.55C441.025 357.694 440.893 357.826 440.737 357.946C440.581 358.066 440.371 358.126 440.107 358.126Z" fill="#303030"/>
<circle cx="191" cy="327.5" r="3" fill="#FCB500"/>
<path d="M205.202 333.162C204.314 333.162 203.546 332.976 202.898 332.604C202.25 332.232 201.746 331.71 201.386 331.038C201.038 330.354 200.864 329.544 200.864 328.608C200.864 327.672 201.038 326.868 201.386 326.196C201.746 325.512 202.25 324.984 202.898 324.612C203.546 324.24 204.314 324.054 205.202 324.054C206.066 324.054 206.822 324.24 207.47 324.612C208.118 324.984 208.622 325.512 208.982 326.196C209.342 326.868 209.522 327.672 209.522 328.608C209.522 329.544 209.342 330.354 208.982 331.038C208.622 331.71 208.118 332.232 207.47 332.604C206.822 332.976 206.066 333.162 205.202 333.162ZM205.202 331.758C205.946 331.758 206.546 331.488 207.002 330.948C207.458 330.408 207.686 329.628 207.686 328.608C207.686 327.588 207.458 326.814 207.002 326.286C206.546 325.746 205.946 325.476 205.202 325.476C204.446 325.476 203.84 325.746 203.384 326.286C202.928 326.814 202.7 327.588 202.7 328.608C202.7 329.628 202.928 330.408 203.384 330.948C203.84 331.488 204.446 331.758 205.202 331.758ZM212.267 333.072C211.907 333.072 211.619 332.964 211.403 332.748C211.199 332.532 211.097 332.256 211.097 331.92C211.097 331.584 211.199 331.314 211.403 331.11C211.619 330.894 211.907 330.786 212.267 330.786C212.615 330.786 212.891 330.894 213.095 331.11C213.299 331.314 213.401 331.584 213.401 331.92C213.401 332.256 213.299 332.532 213.095 332.748C212.891 332.964 212.615 333.072 212.267 333.072ZM221.537 333.126C220.913 333.126 220.601 332.808 220.601 332.172V321.12C220.601 320.496 220.913 320.184 221.537 320.184C222.161 320.184 222.473 320.496 222.473 321.12V325.836H224.507L227.855 320.67C228.023 320.406 228.221 320.25 228.449 320.202C228.689 320.154 228.905 320.19 229.097 320.31C229.301 320.418 229.433 320.58 229.493 320.796C229.565 321.012 229.517 321.252 229.349 321.516L226.271 326.142C226.775 326.334 227.219 326.634 227.603 327.042C227.987 327.438 228.329 327.936 228.629 328.536L230.231 331.83C230.387 332.13 230.411 332.388 230.303 332.604C230.207 332.82 230.045 332.97 229.817 333.054C229.601 333.138 229.373 333.138 229.133 333.054C228.893 332.982 228.707 332.808 228.575 332.532L227.063 329.31C226.739 328.626 226.361 328.14 225.929 327.852C225.497 327.552 224.963 327.402 224.327 327.402H222.473V332.172C222.473 332.808 222.161 333.126 221.537 333.126ZM235.132 333.162C234.52 333.162 233.974 333.042 233.494 332.802C233.014 332.562 232.63 332.238 232.342 331.83C232.066 331.422 231.928 330.96 231.928 330.444C231.928 329.796 232.09 329.286 232.414 328.914C232.75 328.542 233.296 328.272 234.052 328.104C234.82 327.936 235.852 327.852 237.148 327.852H237.76V327.384C237.76 326.7 237.616 326.208 237.328 325.908C237.04 325.608 236.566 325.458 235.906 325.458C235.522 325.458 235.12 325.506 234.7 325.602C234.292 325.698 233.866 325.86 233.422 326.088C233.17 326.208 232.96 326.226 232.792 326.142C232.636 326.058 232.528 325.926 232.468 325.746C232.408 325.566 232.414 325.38 232.486 325.188C232.558 324.996 232.708 324.852 232.936 324.756C233.464 324.516 233.986 324.342 234.502 324.234C235.018 324.114 235.504 324.054 235.96 324.054C237.16 324.054 238.048 324.342 238.624 324.918C239.2 325.482 239.488 326.37 239.488 327.582V332.208C239.488 332.82 239.206 333.126 238.642 333.126C238.066 333.126 237.778 332.82 237.778 332.208V331.542C237.562 332.046 237.226 332.442 236.77 332.73C236.314 333.018 235.768 333.162 235.132 333.162ZM235.492 331.866C236.14 331.866 236.68 331.638 237.112 331.182C237.544 330.726 237.76 330.15 237.76 329.454V328.968H237.166C236.29 328.968 235.6 329.01 235.096 329.094C234.604 329.178 234.25 329.322 234.034 329.526C233.83 329.718 233.728 329.988 233.728 330.336C233.728 330.792 233.884 331.164 234.196 331.452C234.508 331.728 234.94 331.866 235.492 331.866ZM249.06 333.126C248.46 333.126 248.16 332.82 248.16 332.208V325.674H244.974V326.736C244.974 328.524 244.776 329.91 244.38 330.894C243.984 331.878 243.324 332.586 242.4 333.018C242.148 333.126 241.92 333.138 241.716 333.054C241.512 332.982 241.362 332.856 241.266 332.676C241.17 332.496 241.146 332.304 241.194 332.1C241.254 331.896 241.404 331.722 241.644 331.578C242.292 331.206 242.724 330.648 242.94 329.904C243.168 329.148 243.282 328.074 243.282 326.682V325.242C243.282 324.558 243.624 324.216 244.308 324.216H248.952C249.636 324.216 249.978 324.558 249.978 325.242V332.208C249.978 332.82 249.672 333.126 249.06 333.126ZM253.56 333.126C252.996 333.126 252.714 332.802 252.714 332.154V324.972C252.714 324.384 252.99 324.09 253.542 324.09C254.094 324.09 254.37 324.384 254.37 324.972V330.588L258.78 324.684C258.888 324.528 259.02 324.39 259.176 324.27C259.332 324.15 259.548 324.09 259.824 324.09C260.376 324.09 260.652 324.414 260.652 325.062V332.244C260.652 332.832 260.382 333.126 259.842 333.126C259.278 333.126 258.996 332.832 258.996 332.244V326.646L254.586 332.55C254.478 332.694 254.346 332.826 254.19 332.946C254.034 333.066 253.824 333.126 253.56 333.126ZM264.194 333.126C263.654 333.126 263.384 332.838 263.384 332.262V325.062C263.384 324.414 263.66 324.09 264.212 324.09C264.476 324.09 264.68 324.156 264.824 324.288C264.968 324.42 265.088 324.57 265.184 324.738L268.064 329.778L270.926 324.738C271.034 324.558 271.16 324.408 271.304 324.288C271.448 324.156 271.646 324.09 271.898 324.09C272.45 324.09 272.726 324.414 272.726 325.062V332.262C272.726 332.838 272.456 333.126 271.916 333.126C271.388 333.126 271.124 332.838 271.124 332.262V327.042L268.694 331.254C268.634 331.362 268.556 331.458 268.46 331.542C268.364 331.626 268.232 331.668 268.064 331.668C267.884 331.668 267.746 331.626 267.65 331.542C267.566 331.446 267.494 331.35 267.434 331.254L264.986 327.042V332.262C264.986 332.838 264.722 333.126 264.194 333.126ZM278.286 333.162C277.674 333.162 277.128 333.042 276.648 332.802C276.168 332.562 275.784 332.238 275.496 331.83C275.22 331.422 275.082 330.96 275.082 330.444C275.082 329.796 275.244 329.286 275.568 328.914C275.904 328.542 276.45 328.272 277.206 328.104C277.974 327.936 279.006 327.852 280.302 327.852H280.914V327.384C280.914 326.7 280.77 326.208 280.482 325.908C280.194 325.608 279.72 325.458 279.06 325.458C278.676 325.458 278.274 325.506 277.854 325.602C277.446 325.698 277.02 325.86 276.576 326.088C276.324 326.208 276.114 326.226 275.946 326.142C275.79 326.058 275.682 325.926 275.622 325.746C275.562 325.566 275.568 325.38 275.64 325.188C275.712 324.996 275.862 324.852 276.09 324.756C276.618 324.516 277.14 324.342 277.656 324.234C278.172 324.114 278.658 324.054 279.114 324.054C280.314 324.054 281.202 324.342 281.778 324.918C282.354 325.482 282.642 326.37 282.642 327.582V332.208C282.642 332.82 282.36 333.126 281.796 333.126C281.22 333.126 280.932 332.82 280.932 332.208V331.542C280.716 332.046 280.38 332.442 279.924 332.73C279.468 333.018 278.922 333.162 278.286 333.162ZM278.646 331.866C279.294 331.866 279.834 331.638 280.266 331.182C280.698 330.726 280.914 330.15 280.914 329.454V328.968H280.32C279.444 328.968 278.754 329.01 278.25 329.094C277.758 329.178 277.404 329.322 277.188 329.526C276.984 329.718 276.882 329.988 276.882 330.336C276.882 330.792 277.038 331.164 277.35 331.452C277.662 331.728 278.094 331.866 278.646 331.866ZM286.257 333.126C285.645 333.126 285.339 332.82 285.339 332.208V325.008C285.339 324.396 285.645 324.09 286.257 324.09C286.857 324.09 287.157 324.396 287.157 325.008V327.762H291.531V325.008C291.531 324.396 291.831 324.09 292.431 324.09C293.043 324.09 293.349 324.396 293.349 325.008V332.208C293.349 332.82 293.043 333.126 292.431 333.126C291.831 333.126 291.531 332.82 291.531 332.208V329.202H287.157V332.208C287.157 332.82 286.857 333.126 286.257 333.126ZM298.815 333.126C298.203 333.126 297.897 332.82 297.897 332.208V325.674H295.449C294.921 325.674 294.657 325.428 294.657 324.936C294.657 324.456 294.921 324.216 295.449 324.216H302.163C302.691 324.216 302.955 324.456 302.955 324.936C302.955 325.428 302.691 325.674 302.163 325.674H299.715V332.208C299.715 332.82 299.415 333.126 298.815 333.126ZM307.114 333.162C306.502 333.162 305.956 333.042 305.476 332.802C304.996 332.562 304.612 332.238 304.324 331.83C304.048 331.422 303.91 330.96 303.91 330.444C303.91 329.796 304.072 329.286 304.396 328.914C304.732 328.542 305.278 328.272 306.034 328.104C306.802 327.936 307.834 327.852 309.13 327.852H309.742V327.384C309.742 326.7 309.598 326.208 309.31 325.908C309.022 325.608 308.548 325.458 307.888 325.458C307.504 325.458 307.102 325.506 306.682 325.602C306.274 325.698 305.848 325.86 305.404 326.088C305.152 326.208 304.942 326.226 304.774 326.142C304.618 326.058 304.51 325.926 304.45 325.746C304.39 325.566 304.396 325.38 304.468 325.188C304.54 324.996 304.69 324.852 304.918 324.756C305.446 324.516 305.968 324.342 306.484 324.234C307 324.114 307.486 324.054 307.942 324.054C309.142 324.054 310.03 324.342 310.606 324.918C311.182 325.482 311.47 326.37 311.47 327.582V332.208C311.47 332.82 311.188 333.126 310.624 333.126C310.048 333.126 309.76 332.82 309.76 332.208V331.542C309.544 332.046 309.208 332.442 308.752 332.73C308.296 333.018 307.75 333.162 307.114 333.162ZM307.474 331.866C308.122 331.866 308.662 331.638 309.094 331.182C309.526 330.726 309.742 330.15 309.742 329.454V328.968H309.148C308.272 328.968 307.582 329.01 307.078 329.094C306.586 329.178 306.232 329.322 306.016 329.526C305.812 329.718 305.71 329.988 305.71 330.336C305.71 330.792 305.866 331.164 306.178 331.452C306.49 331.728 306.922 331.866 307.474 331.866ZM315.085 333.126C314.473 333.126 314.167 332.82 314.167 332.208V325.008C314.167 324.396 314.473 324.09 315.085 324.09C315.685 324.09 315.985 324.396 315.985 325.008V327.762H320.359V325.008C320.359 324.396 320.659 324.09 321.259 324.09C321.871 324.09 322.177 324.396 322.177 325.008V332.208C322.177 332.82 321.871 333.126 321.259 333.126C320.659 333.126 320.359 332.82 320.359 332.208V329.202H315.985V332.208C315.985 332.82 315.685 333.126 315.085 333.126Z" fill="#303030"/>
</g>
<defs>
<clipPath id="clip0_18_8">
<rect width="480" height="410" fill="white"/>
</clipPath>
</defs>
</svg>
