<svg width="90" height="90" viewBox="0 0 90 90" fill="none" xmlns="http://www.w3.org/2000/svg">
<circle cx="45" cy="45" r="44.5" fill="white" stroke="white"/>
<path fill-rule="evenodd" clip-rule="evenodd" d="M45.75 44.4999C45.75 44.79 45.8652 45.0682 46.0704 45.2733C46.2755 45.4784 46.5537 45.5937 46.8438 45.5937H59.5159L54.8194 50.288C54.7177 50.3897 54.637 50.5105 54.582 50.6433C54.5269 50.7762 54.4986 50.9186 54.4986 51.0624C54.4986 51.2062 54.5269 51.3486 54.582 51.4815C54.637 51.6144 54.7177 51.7351 54.8194 51.8368C54.9211 51.9385 55.0418 52.0191 55.1747 52.0742C55.3075 52.1292 55.4499 52.1575 55.5937 52.1575C55.7376 52.1575 55.88 52.1292 56.0128 52.0742C56.1457 52.0191 56.2664 51.9385 56.3681 51.8368L62.9306 45.2743C63.0325 45.1727 63.1133 45.052 63.1684 44.9191C63.2236 44.7862 63.252 44.6438 63.252 44.4999C63.252 44.3561 63.2236 44.2136 63.1684 44.0807C63.1133 43.9478 63.0325 43.8271 62.9306 43.7255L56.3681 37.163C56.1627 36.9577 55.8842 36.8423 55.5937 36.8423C55.3033 36.8423 55.0248 36.9577 54.8194 37.163C54.614 37.3684 54.4986 37.647 54.4986 37.9374C54.4986 38.2279 54.614 38.5064 54.8194 38.7118L59.5159 43.4062H46.8438C46.5537 43.4062 46.2755 43.5214 46.0704 43.7265C45.8652 43.9316 45.75 44.2098 45.75 44.4999Z" fill="#303030"/>
</svg>
