<svg width="40" height="40" fill="none" xmlns="http://www.w3.org/2000/svg"><path d="M38.828 18.828H1.172C.525 18.828 0 19.353 0 20c0 6.152 3.735 11.697 9.375 14.05v2.356c0 .647.525 1.172 1.172 1.172h18.906c.647 0 1.172-.525 1.172-1.172V34.05C36.293 31.685 40 26.124 40 20c0-.647-.525-1.172-1.172-1.172zm-1.225 2.344c-.074.8-.223 1.584-.44 2.344H2.837a12.79 12.79 0 01-.44-2.344h35.206zM29.062 32.14c-.468.166-.78.609-.78 1.105v1.99H11.718v-1.99c0-.496-.313-.939-.781-1.105a12.912 12.912 0 01-7.174-6.28h32.472a12.912 12.912 0 01-7.174 6.28zM12.14 13.797c.458.458 1.2.458 1.657 0a4.491 4.491 0 000-6.344 2.142 2.142 0 010-3.03 1.172 1.172 0 00-1.657-1.658 4.491 4.491 0 000 6.345 2.142 2.142 0 010 3.03 1.172 1.172 0 000 1.657zM19.171 13.797c.458.458 1.2.458 1.658 0a4.491 4.491 0 000-6.344 2.142 2.142 0 010-3.03 1.172 1.172 0 10-1.658-1.658 4.491 4.491 0 000 6.345 2.142 2.142 0 010 3.03 1.172 1.172 0 000 1.657zM26.203 13.797c.457.458 1.2.458 1.657 0a4.491 4.491 0 000-6.344 2.142 2.142 0 010-3.03 1.172 1.172 0 00-1.657-1.658 4.491 4.491 0 000 6.345 2.142 2.142 0 010 3.03 1.172 1.172 0 000 1.657z" fill="#303030"/></svg>