<svg width="90" height="90" viewBox="0 0 90 90" fill="none" xmlns="http://www.w3.org/2000/svg">
<path fill-rule="evenodd" clip-rule="evenodd" d="M54.25 44.4999C54.25 44.79 54.1348 45.0682 53.9296 45.2733C53.7245 45.4784 53.4463 45.5937 53.1562 45.5937H40.4841L45.1806 50.288C45.2823 50.3897 45.363 50.5105 45.418 50.6433C45.4731 50.7762 45.5014 50.9186 45.5014 51.0624C45.5014 51.2062 45.4731 51.3486 45.418 51.4815C45.363 51.6144 45.2823 51.7351 45.1806 51.8368C45.0789 51.9385 44.9582 52.0191 44.8253 52.0742C44.6925 52.1292 44.5501 52.1575 44.4063 52.1575C44.2624 52.1575 44.12 52.1292 43.9872 52.0742C43.8543 52.0191 43.7336 51.9385 43.6319 51.8368L37.0694 45.2743C36.9675 45.1727 36.8867 45.052 36.8316 44.9191C36.7764 44.7862 36.748 44.6438 36.748 44.4999C36.748 44.3561 36.7764 44.2136 36.8316 44.0807C36.8867 43.9478 36.9675 43.8271 37.0694 43.7255L43.6319 37.163C43.8373 36.9577 44.1158 36.8423 44.4063 36.8423C44.6967 36.8423 44.9752 36.9577 45.1806 37.163C45.386 37.3684 45.5014 37.647 45.5014 37.9374C45.5014 38.2279 45.386 38.5064 45.1806 38.7118L40.4841 43.4062H53.1562C53.4463 43.4062 53.7245 43.5214 53.9296 43.7265C54.1348 43.9316 54.25 44.2098 54.25 44.4999Z" fill="white"/>
<circle r="44.5" transform="matrix(-1 0 0 1 45 45)" stroke="white"/>
</svg>
