<svg width="90" height="90" viewBox="0 0 90 90" fill="none" xmlns="http://www.w3.org/2000/svg">
<path fill-rule="evenodd" clip-rule="evenodd" d="M35.75 44.4999C35.75 44.79 35.8652 45.0682 36.0704 45.2733C36.2755 45.4784 36.5537 45.5937 36.8438 45.5937H49.5159L44.8194 50.288C44.7177 50.3897 44.637 50.5105 44.582 50.6433C44.5269 50.7762 44.4986 50.9186 44.4986 51.0624C44.4986 51.2062 44.5269 51.3486 44.582 51.4815C44.637 51.6144 44.7177 51.7351 44.8194 51.8368C44.9211 51.9385 45.0418 52.0191 45.1747 52.0742C45.3075 52.1292 45.4499 52.1575 45.5937 52.1575C45.7376 52.1575 45.88 52.1292 46.0128 52.0742C46.1457 52.0191 46.2664 51.9385 46.3681 51.8368L52.9306 45.2743C53.0325 45.1727 53.1133 45.052 53.1684 44.9191C53.2236 44.7862 53.252 44.6438 53.252 44.4999C53.252 44.3561 53.2236 44.2136 53.1684 44.0807C53.1133 43.9478 53.0325 43.8271 52.9306 43.7255L46.3681 37.163C46.1627 36.9577 45.8842 36.8423 45.5937 36.8423C45.3033 36.8423 45.0248 36.9577 44.8194 37.163C44.614 37.3684 44.4986 37.647 44.4986 37.9374C44.4986 38.2279 44.614 38.5064 44.8194 38.7118L49.5159 43.4062H36.8438C36.5537 43.4062 36.2755 43.5214 36.0704 43.7265C35.8652 43.9316 35.75 44.2098 35.75 44.4999Z" fill="white"/>
<circle cx="45" cy="45" r="44.5" stroke="white"/>
</svg>
