<svg width="10" height="8" viewBox="0 0 10 8" fill="none" xmlns="http://www.w3.org/2000/svg">
<path d="M3.77334 6.99374L0.988183 4.22421C0.97212 4.20823 0.959374 4.18924 0.950676 4.16833C0.941978 4.14741 0.9375 4.12498 0.9375 4.10233C0.9375 4.07968 0.941978 4.05725 0.950676 4.03633C0.959374 4.01542 0.97212 3.99643 0.988183 3.98046L1.69131 3.27655C1.7585 3.20936 1.86709 3.20936 1.93428 3.27655L3.76787 5.09921C3.83506 5.16639 3.94443 5.16561 4.01162 5.09842L8.06318 1.0078C8.13037 0.939832 8.23975 0.939832 8.30771 1.00702L9.01162 1.71093C9.07881 1.77811 9.07881 1.88671 9.0124 1.95389L4.59834 6.4078L4.59912 6.40858L4.01709 6.99374C3.9499 7.06093 3.84053 7.06093 3.77334 6.99374Z" fill="#FCB500" stroke="#FCB500" stroke-miterlimit="10"/>
</svg>
