<svg width="40" height="40" viewBox="0 0 40 40" fill="none" xmlns="http://www.w3.org/2000/svg">
<path d="M20 0C8.94609 0 0 8.94508 0 20C0 31.0539 8.94508 40 20 40C31.0539 40 40 31.0549 40 20C40 8.94609 31.0549 0 20 0ZM20 37.3334C10.4424 37.3334 2.66664 29.5577 2.66664 20C2.66664 10.4423 10.4424 2.66664 20 2.66664C29.5576 2.66664 37.3334 10.4424 37.3334 20C37.3334 29.5576 29.5576 37.3334 20 37.3334Z" fill="#303030"/>
<path d="M26.6139 11.6066L16.9014 16.2776C16.6288 16.4086 16.4088 16.6286 16.2777 16.9013L11.6067 26.614C11.062 27.7467 12.253 28.9386 13.3862 28.3934L23.0988 23.7225C23.3715 23.5914 23.5915 23.3715 23.7226 23.0987L28.3935 13.3861C28.938 12.2536 27.7475 11.0614 26.6139 11.6066ZM21.5218 21.5218L15.6585 24.3415L18.4783 18.4783L24.3416 15.6585L21.5218 21.5218Z" fill="#303030"/>
</svg>
