<svg width="100" height="62" viewBox="0 0 100 62" fill="none" xmlns="http://www.w3.org/2000/svg">
<rect width="100" height="62" rx="8" fill="#FCB500"/>
<path fill-rule="evenodd" clip-rule="evenodd" d="M40.75 30.4999C40.75 30.79 40.8652 31.0682 41.0704 31.2733C41.2755 31.4784 41.5537 31.5937 41.8438 31.5937H54.5159L49.8194 36.288C49.7177 36.3897 49.637 36.5105 49.582 36.6433C49.5269 36.7762 49.4986 36.9186 49.4986 37.0624C49.4986 37.2062 49.5269 37.3486 49.582 37.4815C49.637 37.6144 49.7177 37.7351 49.8194 37.8368C49.9211 37.9385 50.0418 38.0191 50.1747 38.0742C50.3075 38.1292 50.4499 38.1575 50.5937 38.1575C50.7376 38.1575 50.88 38.1292 51.0128 38.0742C51.1457 38.0191 51.2664 37.9385 51.3681 37.8368L57.9306 31.2743C58.0325 31.1727 58.1133 31.052 58.1684 30.9191C58.2236 30.7862 58.252 30.6438 58.252 30.4999C58.252 30.3561 58.2236 30.2136 58.1684 30.0807C58.1133 29.9478 58.0325 29.8271 57.9306 29.7255L51.3681 23.163C51.1627 22.9577 50.8842 22.8423 50.5937 22.8423C50.3033 22.8423 50.0248 22.9577 49.8194 23.163C49.614 23.3684 49.4986 23.647 49.4986 23.9374C49.4986 24.2279 49.614 24.5064 49.8194 24.7118L54.5159 29.4062H41.8438C41.5537 29.4062 41.2755 29.5214 41.0704 29.7265C40.8652 29.9316 40.75 30.2098 40.75 30.4999Z" fill="white"/>
</svg>
